<?xml version="1.0" encoding="utf-8"?>
<!-- Generator: Adobe Illustrator 20.0.0, SVG Export Plug-In . SVG Version: 6.00 Build 0)  -->
<svg version="1.1" id="Layer_1" xmlns="http://www.w3.org/2000/svg" xmlns:xlink="http://www.w3.org/1999/xlink" x="0px" y="0px"
	 viewBox="0 0 700 700" style="enable-background:new 0 0 700 700;" xml:space="preserve">
<g>
	<g >
		<path d="M657.7,360.5l-129-158.5c-1.5-0.9-3.2-1.8-5.1-2.7c-2.7-1.3-5.8-2.8-9.3-4.1c-3.5-1.3-7.4-2.6-11.7-3.5
			c-4.3-1-9-1.6-14.1-1.6c-5,0-10.4,0.6-15.8,2.2c-0.3,0.1-0.6,0.2-1,0.3c-1.7-3-3.8-6.7-6.5-10.8c-4.1-6.4-9.3-14.1-15.9-22.4
			c-6.6-8.3-14.7-17.4-24.8-26.1c-10.1-8.7-22.3-17.3-37-23.2c-7.3-3-15.3-5.2-23.7-6.4c-4.2-0.6-8.4-0.9-12.7-1
			c-4.2-0.1-8.5,0.1-12.7,0.6c-8.5,0.8-16.9,2.4-25.2,4.8c-8.3,2.4-16.6,5.5-24.4,9.5c-15.8,7.9-30.1,18.6-42.6,30.9
			c-12.5,12.3-23.2,26.1-32.2,40.5c-4.5,7.2-8.7,14.5-12.4,21.8c-0.9,1.8-1.8,3.7-2.7,5.5c-0.9,1.9-1.8,3.9-2.6,5.8
			c-1.6,3.9-3.2,7.7-4.5,11.5c-5.6,15.3-9.2,30.5-11.7,44.9c-2.4,12.9-3.7,25.3-4.7,36.8c-0.4,0.8-0.9,1.6-1.3,2.4
			c-8.8,15.9-23.5,42.5-72.9,55.4c-35.6,9.3-53.8,19.4-58.8,32.7c-2.9,7.6-2.5,15.8,1.1,23.5c7.9,16.9,31.9,32.7,71.4,46.8l0.6,0.2
			c50.4,15,96.2,19,132.1,18.6c13.1-0.1,24.8-0.8,35-1.8c36.7-3.5,60.7-10.7,66.8-12.6c10.3,5.2,21.5,9.6,33.5,12.8
			c6.9,1.9,14,3.5,21.2,4.7c7.2,1.2,14.6,2,22,2.6c7.4,0.5,14.9,0.7,22.4,0.5c7.5-0.2,15-0.7,22.5-1.5c15-1.6,29.8-4.6,44.1-8.6
			c7.1-1.9,14.1-4.2,20.9-6.8c6.8-2.5,13.5-5.2,19.9-8.2c12.9-6,24.9-12.8,35.6-20.4c10.8-7.5,20.2-15.8,28.2-24.2
			c4-4.2,7.6-8.4,10.9-12.6c3.3-4.2,6.1-8.3,8.7-12.3c5.1-8,8.8-15.5,11.4-21.9c2.6-6.4,4.2-11.6,5.2-15.4c0.5-1.9,1.6-7.1,1.8-8.2
			l-0.3,0L657.7,360.5z M536.7,242l88.4,108.8l-132,31.9l4.6-14.8l103.8-25.1L532,257.3L536.7,242z M527.5,271.9l51.2,63l-76.5,18.5
			l4.6-14.9l48.1-11.6l-32.2-39.7L527.5,271.9z M511.5,323.3l6.7-21.5l13.5,16.7L511.5,323.3z M630,375.1
			c-2.4,5.2-5.7,11.4-10.3,18.1c-4.6,6.7-10.3,13.9-17.3,21c-3.5,3.6-7.4,7.1-11.6,10.6c-4.2,3.5-8.7,6.9-13.4,10.2
			c-9.5,6.7-20.3,12.8-32,18.1c-5.8,2.7-11.9,5.2-18.1,7.6c-6.2,2.4-12.7,4.5-19.1,6.4c-13,3.8-26.5,6.7-40.2,8.5
			c-6.8,0.9-13.7,1.5-20.5,1.8c-6.8,0.3-13.7,0.4-20.4,0.1c-13.5-0.6-26.7-2.3-39.1-5.3c-12.4-3-24.1-7.2-34.5-12.3
			c-5.2-2.5-10.2-5.3-14.8-8.3c-4.6-2.9-9-6-13-9.1c-4.1-3.1-7.9-6.2-11.4-9.3c-3.5-3.1-6.8-6.1-9.8-9.1
			c-6.1-5.9-11.1-11.5-15.2-16.2c-4.1-4.7-7.3-8.6-9.5-11.2c-1.1-1.3-1.9-2.3-2.5-3c-0.6-0.7-0.9-1-0.9-1s0.1,0.5,0.3,1.3
			c0.2,0.9,0.5,2.2,1,3.9c1,3.3,2.4,8.2,5,14.2c2.6,6,6.2,13.1,11.3,20.7c5.1,7.6,11.8,15.7,20.3,23.4c2.4,2.1,4.9,4.2,7.5,6.3
			c-34.9,7.5-109.5,17.1-199.4-9.5c-31.3-11.2-52.8-24-57.5-34.3c-1.1-2.5-0.9-4-0.4-5.1c0-0.1,4.5-8.2,42.6-18.2
			c32.1-8.4,51.9-21.6,64.8-34.5c-0.5,5.9-1,11.1-1.8,15.4c-1.1,6.5-2.9,11.2-5,14.2c-1,1.5-2.1,2.6-2.8,3.3
			c-0.8,0.7-1.2,1.1-1.2,1.1s0.1,0,0.4,0c0.3,0,0.7,0,1.2,0c1.1-0.1,2.7-0.3,4.8-1.1c2-0.8,4.5-2.2,6.9-4.4c2.4-2.2,4.8-5.1,6.9-8.6
			c4.2-7,7.2-16.1,9.2-26.3c1-5.1,1.7-10.6,2.4-16.2c0.7-5.6,1.4-11.5,2.1-17.6c1.5-12,3.6-25,6.4-38.5c1.4-6.7,3.1-13.6,5.1-20.4
			c2-6.9,4.1-13.8,6.7-20.7c1.3-3.4,2.7-6.9,4.2-10.2c0.8-1.6,1.5-3.3,2.3-4.9c0.8-1.7,1.7-3.4,2.5-5.1c3.5-6.8,7.3-13.5,11.4-20.1
			c8.2-13.1,17.8-25.7,28.7-36.6c10.9-11,23.3-20.3,36.6-26.9c6.7-3.3,13.5-6,20.5-7.9c7-1.9,14.1-3.2,21-3.8
			c6.7-0.6,13.4-0.5,20,0.6c6.4,1.1,12.5,2.9,18.2,5.4c11.5,4.9,21.5,12.1,29.9,19.7c8.4,7.7,15.3,15.8,21,23.4
			c5.7,7.6,10.1,14.6,13.6,20.5c2.9,5,5.1,9.2,6.7,12.3c-5,6-8.7,12.9-13.2,19.4c-7.3,10.7-15.9,14.1-27,20.1
			c26,18.5,42.2-19.6,59.9-30.6c2.7-1.7,5.6-2.8,8.7-3.4c3-0.6,6.2-0.7,9.4-0.4c3.2,0.3,6.3,1,9.3,1.9c3,0.9,5.8,2,8.4,3.1
			c5.2,2.3,9.4,4.7,12.3,6.5c1.4,0.9,2.5,1.6,3.2,2.1c0.1,0.1,0.2,0.2,0.3,0.2L465,407l168.5-40.7
			C632.7,368.7,631.6,371.7,630,375.1C627.5,380.3,631.6,371.7,630,375.1C627.5,380.3,631.6,371.7,630,375.1
			C627.5,380.3,631.6,371.7,630,375.1z"/>
	</g>
	<path d="M104.9,505.7c-7.4,9.4-14.7,18.7-22.1,28.1c0.9-10.2,2.4-20.3,4.4-30.4c-5.6-0.7-11.2-1.5-16.8-2.3
		C48.6,525.1,26.8,549,4.9,573c8.2,1.2,16.5,2.3,24.8,3.4c7.8-9.3,15.6-18.6,23.3-27.8c-1.1,10.2-1.6,20.4-1.6,30.6
		c7,0.9,13.9,1.7,20.9,2.5c17.6-24.5,35.1-49,52.7-73.5C118.3,507.3,111.6,506.5,104.9,505.7z"/>
	<path d="M184.7,514c-6.9-0.6-13.8-1.2-20.6-1.8c-9,15.4-18.1,30.9-27.1,46.3c-1.5,2.6-3.2,4.5-5.1,5.8c-1.9,1.3-4.1,1.8-6.7,1.5
		c-2.6-0.2-4-1.1-4.2-2.6c-0.2-1.5,0.5-3.5,2.1-6.1c9.6-15.4,19.2-30.8,28.9-46.1c-6.8-0.7-13.7-1.4-20.5-2.2
		c-10.8,15.6-21.7,31.2-32.5,46.8c-3.4,4.9-5.6,9.2-6.6,12.9c-1,3.8-0.9,7,0.3,9.7c1.2,2.7,3.5,4.8,6.8,6.4
		c3.3,1.6,7.5,2.7,12.5,3.1c5,0.5,9.9,0.3,14.6-0.5c4.7-0.8,9.2-2.3,13.3-4.4c4.1-2.1,7.9-5,11.3-8.5c3.4-3.5,6.4-7.8,8.9-12.7
		C168.3,545.7,176.5,529.9,184.7,514z"/>
	<path d="M237.6,539.5c-0.3-4.8-1.6-8.9-3.8-12.3c-2.2-3.4-5.4-6-9.6-7.9c-4.2-1.9-9.2-3-15.2-3.5c-5.9-0.4-11.9-0.9-17.8-1.4
		c-12.4,25-24.8,50-37.2,75c7.3,0.6,14.7,1.1,22,1.7c7.5,0.5,14.5,0.2,20.9-1.1c6.4-1.3,12.2-3.4,17.2-6.3c5-3,9.3-6.8,12.8-11.4
		c3.5-4.6,6.2-10.1,8.2-16.3C237.1,549.9,237.9,544.4,237.6,539.5z M212.5,554.8c-2.1,5.5-5.2,9.5-9.3,12c-4.1,2.5-9,3.5-14.7,3.1
		c4.6-10.8,9.3-21.6,13.9-32.4c5.1,0.4,8.6,1.9,10.4,4.8C214.7,545.1,214.6,549.3,212.5,554.8z"/>
	<path d="M252.4,518.5c-7.6,25.3-15.2,50.6-22.8,75.9c9,0.4,18,0.8,26.9,1.2c5.9-25.4,11.8-50.8,17.7-76.2
		C267,519.2,259.7,518.9,252.4,518.5z"/>
	<path d="M324.3,559.5c-1.2-1.7-2.5-3.1-4-4.2c1.1-0.9,2-2,2.9-3.4c0.7-1.1,1.4-2.6,2.1-4.3c0.7-1.7,1.1-3.8,1.3-6.2
		c0.2-3.4-0.1-6.4-1-9c-0.9-2.6-2.3-4.7-4.1-6.5c-1.8-1.7-4-3.1-6.6-4c-2.6-0.9-5.5-1.4-8.7-1.5c-8.4-0.2-16.8-0.4-25.2-0.7
		c-5.4,25.4-10.8,50.8-16.2,76.2c10.8,0.4,21.6,0.7,32.4,0.9c4.5,0.1,8.6-0.4,12.3-1.4c3.7-1,6.9-2.6,9.5-4.7
		c2.6-2.1,4.7-4.6,6.2-7.6c1.5-3,2.3-6.3,2.5-10c0.2-3.2-0.1-5.9-0.9-8.2C326.2,562.8,325.3,561,324.3,559.5z M304.4,572.3
		c-0.5,4.4-3.7,6.6-9.5,6.5c-0.9,0-1.8,0-2.7-0.1c0.7-4.4,1.3-8.9,2-13.3c0.9,0,1.8,0,2.6,0.1C302.4,565.6,304.9,567.8,304.4,572.3z
		 M305.1,543.7c-0.4,3.5-2.4,5.2-5.9,5.2c-0.8,0-1.7,0-2.5-0.1c0.5-3.5,1.1-7,1.6-10.5c0.8,0,1.6,0,2.4,0.1
		C304.1,538.4,305.6,540.2,305.1,543.7z"/>
	<path d="M386.5,566.8c1.1-1.8,2-4,2.7-6.7c0.7-2.7,0.9-5.9,0.4-9.8c-0.5-4.8-1.8-9.1-3.7-12.7c-1.9-3.7-4.3-6.8-7.2-9.2
		c-2.9-2.5-6.1-4.4-9.7-5.6c-3.6-1.3-7.4-1.9-11.6-1.9c-7.4,0-14.8,0-22.2,0c-1.2,25.5-2.3,51-3.5,76.5c8.5,0.1,16.9,0.1,25.4,0.1
		c-0.1-6.5-0.2-12.9-0.3-19.4c3.9,6.4,8,12.9,12.3,19.3c9.9-0.1,19.9-0.2,29.8-0.4c-6-8.3-11.7-16.6-17-25
		C383.7,570.5,385.2,568.8,386.5,566.8z M364.6,556.5c-1.8,1.3-4.1,2-6.9,2c-0.4,0-0.8,0-1.2,0c-0.1-5.7-0.2-11.3-0.3-17
		c0.4,0,0.8,0,1.1,0c2.6,0,4.8,0.6,6.7,1.9c1.9,1.3,2.9,3.5,3.1,6.5C367.3,553,366.4,555.2,364.6,556.5z"/>
	<path d="M415.1,519.8c-3.1,25.7-8,51.4-14.9,77c8.4-0.2,16.7-0.4,25-0.6c0.4-2.3,0.9-4.6,1.3-6.9c7.9-0.3,15.8-0.5,23.7-0.9
		c1.4,2.2,2.9,4.5,4.4,6.7c8.3-0.4,16.7-0.8,25-1.2c-18.2-24.7-34.6-49.7-49-74.7C425.4,519.5,420.2,519.7,415.1,519.8z
		 M439.6,571.9c-3.4,0.1-6.7,0.3-10.1,0.4c0.7-4.5,1.4-9,2.1-13.5C434.2,563.1,436.9,567.5,439.6,571.9z"/>
	<path d="M491.1,515.9c4.2,9.7,8.5,19.3,12.7,29c-10.7-9.2-20.9-18.5-30.5-27.8c-5.6,0.4-11.3,0.7-16.9,1
		c8.3,25.3,16.6,50.5,24.9,75.8c8.3-0.4,16.6-0.9,24.9-1.5c-3.8-9.7-7.6-19.3-11.4-29c10.5,9.2,21.6,18.4,33.2,27.5
		c7-0.5,14-1,21-1.6c-12.6-25-25.2-50-37.8-75C504.5,514.9,497.8,515.4,491.1,515.9z"/>
	<path d="M594.5,559.2c-0.8,0.9-1.9,1.7-3.4,2.5c-1.5,0.8-3.4,1.3-5.8,1.5c-2.4,0.2-4.9,0.1-7.4-0.6c-2.5-0.6-4.9-1.6-7.3-2.8
		c-2.3-1.3-4.5-2.8-6.4-4.6c-2-1.8-3.6-3.8-4.8-6c-1.3-2.2-2.1-4.2-2.4-6.2c-0.4-2-0.3-3.7,0.2-5.3c0.5-1.5,1.4-2.8,2.7-3.8
		c1.3-1,3-1.6,5.1-1.8c2.1-0.2,4.1-0.1,6,0.3c2,0.4,3.8,0.8,5.3,1.3c1.9,0.7,3.6,1.4,5.4,2.2c-1-7.2-2.2-14.4-3.6-21.6
		c-2.8-1.2-5.7-2.2-9-3.2c-2.8-0.8-5.9-1.5-9.3-2c-3.4-0.5-6.9-0.6-10.5-0.2c-4.6,0.5-8.4,1.8-11.4,4c-3,2.2-5.2,5.2-6.5,8.9
		c-1.3,3.7-1.6,8.1-1,13.1c0.6,5,2.5,10.5,5.6,16.5c3,5.8,6.8,11.1,11.4,15.7c4.6,4.6,9.7,8.5,15.3,11.6c5.6,3.1,11.6,5.4,18,6.8
		c6.3,1.4,12.7,1.8,18.9,1.2c4.6-0.5,8.4-1.3,11.4-2.6c3-1.3,5.4-2.6,7.2-3.9c2-1.6,3.5-3.3,4.5-5.1c-9-6.3-17.7-12.7-26.2-19.1
		C596.1,557.2,595.4,558.3,594.5,559.2z"/>
	<path d="M669.7,576.4c8.5-1.1,16.9-2.3,25.4-3.5c-21.8-24-43.7-47.9-65.5-71.9c-6.8,1-13.7,1.9-20.5,2.8
		c6.9,8.2,13.8,16.5,20.6,24.7c-4.1,0.5-8.2,1.1-12.3,1.6c-6.6-8.3-13.2-16.5-19.7-24.8c-6.8,0.9-13.6,1.7-20.5,2.5
		c17.7,24.5,35.5,49,53.2,73.4c8.4-1,16.9-2,25.3-3c-7.2-9-14.3-18-21.5-27c4.4-0.6,8.7-1.1,13.1-1.7
		C654.7,558.5,662.2,567.5,669.7,576.4z"/>
</g>
</svg>
